<svg xmlns="http://www.w3.org/2000/svg" width="32" height="32" viewBox="0 0 256 256"><path fill="currentColor" d="M247.31 199.31L152 104l44.69-44.69a16 16 0 0 0-22.62-22.62L129.37 81.4a15.81 15.81 0 0 0-22.62 0L81.4 36.69a16 16 0 0 0-22.62 22.62L103.47 104l-95.31 95.31a16 16 0 0 0 0 22.63a16 16 0 0 0 22.62 0L128 124.69l96.69 96.62a16 16 0 0 0 22.62-22Z"/><circle cx="68" cy="204" r="28" fill="none" stroke="currentColor" stroke-linecap="round" stroke-linejoin="round" stroke-width="16"/><circle cx="188" cy="204" r="28" fill="none" stroke="currentColor" stroke-linecap="round" stroke-linejoin="round" stroke-width="16"/></svg>